PathFileType	4	(X/Y/Z)	C:\Users\WrightLab\Desktop\Jo\P4V121.trc
DataRate	CameraRate	NumFrames	NumMarkers	Units	OrigDataRate	OrigDataStartFrame	OrigNumFrames
100.00	100.00	       23	19	mm	100.00	345	       551
Frame#	Time	Headset_Front			Headset_Back			Headset_Left			Headset_Right			Left_Shoulder			Right_Shoulder			Sternum			C7			Left Elbow			Right Elbow			Left Wrist			Right Wrist			Left ASIS			Right ASIS			S2			Left Knee			Right Knee			Left Ankle			Right Ankle			
		X1	Y1	Z1	X2	Y2	Z2	X3	Y3	Z3	X4	Y4	Z4	X5	Y5	Z5	X6	Y6	Z6	X7	Y7	Z7	X8	Y8	Z8	X9	Y9	Z9	X10	Y10	Z10	X11	Y11	Z11	X12	Y12	Z12	X13	Y13	Z13	X14	Y14	Z14	X15	Y15	Z15	X16	Y16	Z16	X17	Y17	Z17	X18	Y18	Z18	X19	Y19	Z19	

345	3.440	79.57463	1678.83032	1270.75513							-26.30028	1687.64966	1161.68152	238.88815	1517.38220	1043.38733	-62.45787	1509.84045	1079.42419	117.31057	1449.77710	1168.05481				429.86673	1189.49988	1027.57031	-198.48021	1159.77173	1081.76587	484.51880	935.76495	1205.08435	-188.82799	891.74701	1228.48291	273.16132	1024.18665	1081.82373	-35.36913	1011.58557	1203.70251	67.58501	1038.84460	964.03693	277.54077	570.79492	923.04584	-2.50596	570.46216	1326.95068	171.54312	126.92461	659.25720	96.72054	85.26466	1428.25549	
346	3.450	77.52970	1678.87610	1281.85327							-28.28766	1687.76306	1172.26221	238.49994	1517.12244	1054.93933	-62.87901	1509.02747	1089.36829	115.57664	1450.17871	1180.15576				429.11847	1189.30554	1040.95959	-197.77898	1158.66809	1091.17151	482.38513	935.79736	1219.28735	-188.98766	889.52704	1236.38818	273.06613	1023.85571	1097.70435	-36.02186	1011.83105	1216.72620	68.37239	1039.24207	978.09589	280.82666	572.24829	936.07983	-5.16181	569.21930	1339.05164	173.53784	133.19859	663.56891	97.61947	86.37063	1432.45239	
347	3.460	75.29855	1680.14990	1292.78455							-29.74452	1688.39246	1182.85986	238.17230	1517.44299	1068.99292	-64.95068	1509.50330	1099.31885	113.69483	1451.12805	1192.67432				428.42426	1188.80774	1054.36133	-197.84401	1157.96838	1100.79211	480.30957	935.87915	1233.45007	-189.46503	888.04584	1244.53711	273.29504	1023.58441	1113.54651	-37.73232	1013.24554	1229.54407	68.85098	1039.76550	992.82800	284.14505	574.33502	950.20148	-8.42873	568.88165	1350.39856	175.26053	140.30534	668.58667	98.02759	87.20409	1435.61133	
348	3.470	73.27342	1680.84766	1303.90503							-30.43604	1689.82605	1193.41956	237.59331	1518.10437	1081.15491	-65.33617	1509.54443	1109.21924	112.31268	1452.32788	1204.46423				426.93765	1188.91150	1068.06934	-197.33838	1157.58655	1110.54419	477.17957	935.77887	1246.85107	-189.79324	886.61047	1253.27344	272.87866	1023.74207	1129.11462	-39.00664	1014.87262	1241.94507	70.04921	1041.02686	1006.09534	287.37119	575.18530	966.70642	-9.99592	568.44897	1360.60706	176.58328	147.61436	675.03613	97.93896	88.37320	1438.04272	
349	3.480	71.76101	1681.98108	1314.87134							-31.51269	1690.90295	1204.02698	237.02742	1519.15503	1093.95935	-66.02335	1510.04053	1118.92773	110.03067	1453.92517	1216.82727				425.33200	1189.79614	1081.15063	-196.48758	1157.38196	1120.62292	474.10757	935.86469	1260.31409	-190.16458	885.72498	1261.54260	272.71176	1023.86444	1145.23401	-40.62531	1017.30090	1253.95374	70.20620	1042.90112	1019.57343	290.87500	576.06769	984.20538	-10.21454	569.17468	1371.35962	177.95348	156.47316	682.02606	98.23081	88.48031	1439.80029	
350	3.490	76.24847	1543.33313	1059.13757							-33.44585	1692.49121	1214.41064	236.94316	1520.52100	1107.06506	-67.51811	1511.40125	1128.55408	107.95516	1456.03125	1228.67444				423.74152	1190.10266	1094.84009	-196.41957	1157.59998	1129.96912	471.32697	936.22998	1273.29639	-190.40358	885.24017	1269.57141	271.65051	1023.99725	1160.70044	-42.79427	1020.00690	1265.61902	70.71928	1043.90271	1032.87561	294.80273	575.12512	1003.15363	-9.41087	570.96674	1381.92346	179.84535	165.64580	690.36902	97.92594	89.51114	1441.94763	
351	3.500	75.93911	1545.81567	1070.91675							-34.34159	1693.35925	1225.02417	235.96455	1522.12952	1119.58582	-67.82380	1512.53137	1138.26208	106.09241	1458.20642	1240.69482				421.19513	1190.59741	1107.91760	-196.08794	1159.46094	1140.78186	467.54474	936.77283	1287.11133	-191.17554	885.80109	1278.62708	270.41125	1024.39612	1176.25037	-45.38855	1022.35168	1276.72729	71.35052	1045.20605	1046.22815	298.29877	574.34918	1023.23297	-9.83887	573.64856	1392.71216	181.27065	176.05641	699.32794	97.77039	89.78100	1443.07251	
352	3.510	73.55565	1547.01160	1082.06677							-36.40248	1695.26990	1235.54749	235.34471	1524.00549	1133.34937	-68.57632	1514.10425	1147.72083	104.34157	1460.25684	1252.27307				418.88660	1192.07764	1122.16907	-196.15126	1160.06470	1150.70068	463.10190	937.10138	1299.82190	-191.74258	886.44312	1287.65808	268.81473	1025.08618	1190.74841	-48.08946	1025.19128	1287.47437	72.16472	1046.59680	1057.46118	302.89728	572.19739	1045.07690	-11.16070	576.81421	1404.01611	182.98936	187.32709	709.90076	97.87199	89.91324	1444.35608	
353	3.520	74.31200	1548.05090	1093.01636							-37.90226	1697.20251	1245.91919	235.02174	1525.60339	1144.89539	-69.58877	1516.19116	1157.32520	102.16055	1462.53674	1264.01465				416.14105	1192.83252	1135.27991	-195.79237	1161.87683	1160.13538	459.02228	937.35651	1312.59033	-192.01245	887.09235	1296.99402	266.92554	1024.65405	1206.04541	-51.43281	1027.77222	1297.81177	73.17463	1047.59912	1070.24463	306.60522	570.80249	1067.74463	-13.80344	579.71991	1415.12024	184.09474	199.39830	722.44861	97.60810	90.48576	1445.28210	
354	3.530	72.38330	1550.29224	1104.22681							-39.54967	1699.28625	1256.16077	233.91853	1528.27039	1159.05908	-69.55095	1517.70337	1166.94934	100.82368	1464.29150	1275.31665				413.62885	1194.07263	1148.01929	-196.44516	1164.08105	1170.50623	454.38983	937.84106	1326.40552	-192.22404	888.22949	1307.37341	265.44348	1025.79797	1221.07495	-54.78138	1030.03394	1308.01111	73.65053	1048.92859	1079.86511	310.18353	569.08514	1090.89355	-16.14261	581.40302	1425.57898	185.47717	211.62659	736.19031	97.54091	90.87565	1446.44971	
355	3.540	75.69051	1551.26904	1115.05017							-40.85651	1700.98962	1266.25659	233.33620	1530.62061	1170.99988	-70.09320	1519.75769	1176.50195	98.77388	1466.19458	1286.86523				411.06006	1194.71643	1160.97632	-196.38048	1165.91138	1179.76587	449.96487	937.93597	1338.23486	-193.05721	890.70313	1314.30469	263.71234	1026.38611	1234.42737	-58.22536	1032.60022	1317.90259	73.80256	1049.86096	1091.78491	314.59787	567.47412	1114.43311	-19.20479	582.62561	1434.48242	186.62666	224.73923	751.44342	97.27122	91.18739	1446.95959	
356	3.550	77.56247	1552.20105	1125.62500							-42.12014	1702.42957	1276.54089	232.37488	1532.35901	1184.64771	-71.29868	1521.90930	1186.38196	96.68198	1468.21924	1297.80310				408.60724	1196.41199	1174.64954	-196.99777	1167.48267	1189.37854	444.59943	938.13861	1351.21558	-193.30630	892.80750	1323.84888	261.68143	1027.23364	1247.92310	-61.81091	1034.45166	1327.74792	73.64149	1050.49194	1103.18091	317.74139	565.63293	1139.14221	-22.21153	582.94519	1441.68481	188.05544	237.95758	769.16827	97.18609	91.21806	1447.75403	
357	3.560	73.52641	1555.23706	1136.58228							-42.69536	1703.16895	1286.71143	231.84587	1533.58008	1195.63501	-71.09915	1523.50745	1196.06519	95.52147	1469.60266	1308.65259				406.49744	1197.18909	1187.67078	-198.05151	1169.70410	1198.78162	439.71732	938.40582	1363.44678	-193.50529	894.93024	1333.64502	260.00223	1028.33557	1261.16443	-65.39701	1036.77454	1336.97656	73.84186	1051.50183	1113.44580	320.35260	565.09509	1165.28418	-23.62161	582.48663	1447.67078	190.32094	251.04776	788.30255	97.02282	91.26163	1448.07263	
358	3.570	74.88558	1555.34766	1146.63013							-44.31422	1705.14758	1296.48926	230.92818	1535.40527	1208.54858	-72.01489	1525.55176	1205.72668	93.73537	1471.45410	1319.50598				404.53198	1197.28931	1200.36182	-200.18430	1172.51062	1208.23047	434.01166	938.39252	1376.32324	-193.93552	897.49158	1343.34106	256.66962	1030.18665	1274.61548	-68.25773	1038.14246	1346.07654	72.89767	1052.23486	1123.46899	322.62070	564.24506	1190.46082	-23.06116	581.34930	1452.63794	192.80894	262.63214	809.00806	96.86458	91.24035	1448.36169	
359	3.580	75.01098	1557.60608	1157.14832							-45.14031	1706.77832	1306.31018	230.71939	1536.62805	1219.34338	-72.91784	1527.61365	1215.17615	92.06638	1472.92407	1330.04932				401.63165	1198.07861	1213.29907	-201.10555	1174.52429	1217.35034	429.03986	938.98169	1388.55542	-194.85219	900.02582	1353.57813	255.38695	1032.36914	1287.15466	-70.99899	1039.55847	1355.09021	73.40700	1054.13843	1133.93335	324.48846	563.62817	1215.74329	-22.65586	580.54358	1456.89502	196.92097	272.90817	829.88171	96.69329	91.33427	1448.78467	
360	3.590	73.33333	1559.05127	1167.12378							-46.68570	1708.84070	1316.09009	229.68578	1538.27905	1231.32556	-73.23543	1529.22852	1224.60718	90.56594	1474.56372	1340.23511				399.75720	1199.37207	1225.28076	-202.79239	1176.91248	1226.17517	423.13098	938.79724	1400.97119	-194.94371	903.02173	1363.70740	253.18694	1033.98486	1300.16711	-73.48560	1040.86157	1363.53064	72.84788	1054.93579	1144.82300	325.04129	563.53607	1240.98071	-22.70666	580.48230	1460.81018	201.54102	282.50873	849.34412	96.38564	91.25029	1449.03674	
361	3.600	72.42281	1561.66382	1177.17590							-47.63698	1710.52942	1325.69397	229.26340	1539.95703	1241.37537	-74.22317	1531.30359	1233.79431	89.39716	1476.08179	1350.09607				397.90567	1200.11621	1238.33960	-204.70123	1179.07410	1235.59521	417.51758	939.82623	1413.71362	-195.43318	906.09540	1373.87537	251.76277	1036.57654	1311.51453	-76.34403	1042.60840	1371.83691	73.27083	1056.96228	1154.35083	325.01276	564.49347	1265.58936	-24.03364	580.17358	1465.04480	207.50616	289.61481	869.27869	96.26188	91.12750	1449.12671	
362	3.610	73.51437	1562.30225	1186.75330										228.22920	1541.55347	1253.13892	-74.68731	1533.32678	1242.60474	87.90924	1477.36230	1359.41174				396.09009	1200.99780	1250.73145	-206.62387	1181.83472	1244.37878	411.47656	939.68951	1424.60193	-196.36436	909.90619	1384.14221	249.73436	1038.84155	1323.83484	-78.63865	1043.84937	1379.77454	73.37614	1058.73230	1163.75928	325.02798	566.21570	1289.48535	-26.94700	580.52155	1469.13623	213.07719	296.50775	888.62842	96.06707	90.83924	1448.99805	
363	3.620	72.12713	1564.68042	1196.43250										227.25725	1542.66064	1262.56470	-75.53618	1535.51917	1251.42761	86.23844	1479.08264	1368.17188				393.66473	1201.67896	1262.49475	-208.78160	1184.04675	1253.42883	405.51227	941.04480	1437.55286	-197.12717	913.10309	1394.53381	248.63893	1041.03674	1336.56030	-81.53030	1045.69751	1387.50012	72.94678	1060.22461	1174.01184	324.64944	567.72363	1314.51306	-30.08485	580.07159	1472.90894	219.47293	301.27972	909.39581	95.83810	90.65532	1449.05896	
364	3.630	69.36344	1567.35107	1205.89136										226.57660	1544.13806	1272.64905	-76.92107	1537.81824	1259.95435	85.29070	1481.18494	1377.84436				391.77621	1203.26001	1275.57983	-210.65471	1186.70532	1262.10840	399.17419	941.89532	1448.28076	-197.90018	916.78693	1405.06543	246.03975	1043.37537	1348.68616	-84.38562	1047.34619	1394.78149	73.72791	1062.54688	1182.73059	323.77585	569.62354	1339.00879	-35.15845	580.14044	1476.13538	226.31241	304.75958	930.25116	95.34041	90.72445	1449.08533	
365	3.640	71.74238	1568.53796	1214.97278										225.93410	1545.68579	1282.75439	-76.49203	1539.47034	1268.19043	83.75314	1483.36633	1387.32263				389.74005	1204.19116	1286.87427	-212.83122	1189.21326	1270.85120	392.67703	943.51245	1460.31628	-198.80112	920.57910	1415.40295	243.43671	1046.03369	1360.86646	-87.36986	1049.01538	1401.72693	74.69136	1063.08020	1193.47412	322.25568	572.34180	1363.65125	-38.32794	580.04626	1479.27625	232.42140	307.08447	952.56360	95.00115	90.56069	1448.79175	
366	3.650	70.02657	1570.77893	1223.95813										225.53049	1547.22766	1291.42224	-77.68655	1541.89331	1276.31726	82.10775	1485.37122	1396.20667				387.98413	1205.34314	1298.24084	-214.79729	1191.91931	1279.26843	387.00320	944.62744	1470.56873	-200.02956	924.68817	1426.06201	240.95999	1047.97498	1373.05188	-90.68633	1050.52246	1408.77466	75.19692	1065.79126	1202.45044	320.67587	574.82788	1388.68958	-40.58004	579.65277	1481.84497	238.27785	308.24710	976.07263	94.78754	90.41942	1448.82129	
367	3.660	68.44519	1573.17554	1232.81934										224.67056	1549.18420	1301.64075	-78.99713	1544.22449	1284.35400	80.98643	1487.70557	1405.18384				385.56836	1206.49805	1308.36108	-217.08156	1194.74121	1287.52283	380.41745	946.48993	1482.24731	-200.89366	928.57153	1436.56360	238.72665	1050.75745	1385.39709	-93.75925	1052.14612	1415.30566	75.90706	1067.77271	1211.42346	318.77985	577.64618	1411.61890	-42.93109	579.55341	1484.08179	243.87640	307.84741	999.69403	94.60444	90.27953	1448.87061	
